<svg width="20" height="20" viewBox="0 0 20 20" fill="none" xmlns="http://www.w3.org/2000/svg">
<path fill-rule="evenodd" clip-rule="evenodd" d="M0.489946 3.37351C0.806273 2.84875 2.55018 0.943766 3.7929 1.00127C4.16469 1.03311 4.49334 1.25698 4.76037 1.51783H4.7614C5.37351 2.11756 7.12974 4.38094 7.22834 4.85745C7.47175 6.02611 6.07806 6.69978 6.50428 7.87769C7.59089 10.5364 9.46317 12.4086 12.1232 13.494C13.3002 13.9212 13.9739 12.5287 15.1427 12.7711C15.6192 12.8707 17.8839 14.6257 18.4826 15.2388C18.7425 15.5048 18.9684 15.8344 18.9992 16.2062C19.0454 17.5155 17.0222 19.2829 16.6278 19.5088C15.6973 20.1753 14.4833 20.163 13.0034 19.475C8.87366 17.7569 2.27391 11.282 0.523838 6.99657C-0.145791 5.52496 -0.19098 4.3029 0.489946 3.37351Z" fill="#0781BA"/>
<path d="M12.0654 1.25C15.7674 1.661 18.6904 4.581 19.1064 8.282" stroke="#0781BA" stroke-width="1.5" stroke-linecap="round" stroke-linejoin="round"/>
<path d="M12.0654 4.793C13.8354 5.138 15.2184 6.521 15.5634 8.291" stroke="#0781BA" stroke-width="1.5" stroke-linecap="round" stroke-linejoin="round"/>
</svg>
