<svg width="26" height="26" viewBox="0 0 26 26" fill="none" xmlns="http://www.w3.org/2000/svg">
<path fill-rule="evenodd" clip-rule="evenodd" d="M25.5303 0.46967C25.8232 0.762563 25.8232 1.23744 25.5303 1.53033L1.53033 25.5303C1.23744 25.8232 0.762563 25.8232 0.46967 25.5303C0.176777 25.2374 0.176777 24.7626 0.46967 24.4697L24.4697 0.46967C24.7626 0.176777 25.2374 0.176777 25.5303 0.46967Z" fill="#77C5E9"/>
<path fill-rule="evenodd" clip-rule="evenodd" d="M0.46967 0.46967C0.762563 0.176777 1.23744 0.176777 1.53033 0.46967L25.5303 24.4697C25.8232 24.7626 25.8232 25.2374 25.5303 25.5303C25.2374 25.8232 24.7626 25.8232 24.4697 25.5303L0.46967 1.53033C0.176777 1.23744 0.176777 0.762563 0.46967 0.46967Z" fill="#77C5E9"/>
</svg>
