<svg width="48" height="49" viewBox="0 0 48 49" fill="none" xmlns="http://www.w3.org/2000/svg">
<path d="M33.0111 34.2364V14.2819L24.011 30.2455H36.0111" stroke="#0781BA" stroke-width="1.5" stroke-miterlimit="10" stroke-linecap="round" stroke-linejoin="round"/>
<path d="M23.811 34.2364H13.0111L22.011 23.1616C22.811 22.1639 23.311 20.9666 23.311 19.6696V19.4701C23.311 16.5767 21.0111 14.2819 18.1111 14.2819C15.2111 14.2819 12.9111 16.5767 12.9111 19.4701" stroke="#0781BA" stroke-width="1.5" stroke-miterlimit="10" stroke-linecap="round" stroke-linejoin="round"/>
<path d="M18.8111 46.9073C6.41108 44.014 -1.28891 31.7419 1.61108 19.3702C3.01108 13.1843 6.81108 8.19566 11.8111 5.10272L10.5111 3.10728L11.4111 2.50867L17.5111 3.90547L16.1111 9.99159L15.2111 10.5902L13.9111 8.49501C9.81107 11.0891 6.71108 15.1797 5.51108 20.2681C3.11108 30.4449 9.51108 40.6217 19.7111 43.0162" stroke="#001424" stroke-width="1.5" stroke-miterlimit="10" stroke-linecap="round"/>
<path d="M22.6611 47.2068C22.6611 47.3419 22.5508 47.4545 22.4111 47.4545C22.2714 47.4545 22.1611 47.3419 22.1611 47.2068C22.1611 47.0716 22.2714 46.9591 22.4111 46.9591C22.5508 46.9591 22.6611 47.0716 22.6611 47.2068Z" fill="#0781BA" stroke="#0781BA" stroke-width="1.5"/>
<path d="M23.3611 43.5152C23.3611 43.6504 23.2508 43.7629 23.1111 43.7629C22.9714 43.7629 22.8611 43.6504 22.8611 43.5152C22.8611 43.38 22.9714 43.2675 23.1111 43.2675C23.2508 43.2675 23.3611 43.38 23.3611 43.5152Z" fill="#0781BA" stroke="#0781BA" stroke-width="1.5"/>
<path d="M29.1111 1.81018C41.511 4.70359 49.211 16.9757 46.311 29.3475C44.911 35.5334 41.111 40.522 36.111 43.615L37.411 45.6105L36.5111 46.2091L30.4111 44.8123L31.8111 38.7261L32.7111 38.1275L34.0111 40.2227C38.1111 37.6286 41.211 33.538 42.411 28.4495C44.811 18.2727 38.4111 8.09587 28.2111 5.70132" stroke="#001424" stroke-width="1.5" stroke-miterlimit="10" stroke-linecap="round"/>
<path d="M25.761 1.51093C25.761 1.64615 25.6507 1.75867 25.511 1.75867C25.3713 1.75867 25.261 1.64615 25.261 1.51093C25.261 1.3757 25.3713 1.26318 25.511 1.26318C25.6507 1.26318 25.761 1.3757 25.761 1.51093Z" fill="#0781BA" stroke="#0781BA" stroke-width="1.5"/>
<path d="M25.061 5.30225C25.061 5.4374 24.9507 5.54993 24.811 5.54993C24.6713 5.54993 24.561 5.4374 24.561 5.30225C24.561 5.1671 24.6713 5.05457 24.811 5.05457C24.9507 5.05457 25.061 5.1671 25.061 5.30225Z" fill="#0781BA" stroke="#0781BA" stroke-width="1.5"/>
</svg>
