<svg width="48" height="49" viewBox="0 0 48 49" fill="none" xmlns="http://www.w3.org/2000/svg">
<path d="M27 43.4154H47V45.4108C46.2 46.209 45.8 46.6081 45 47.4062H3C2.2 46.6081 1.8 46.209 1 45.4108V43.4154H21" stroke="#001424" stroke-width="1.5" stroke-miterlimit="10"/>
<path d="M25 43.4154H23" stroke="#001424" stroke-width="1.5" stroke-miterlimit="10"/>
<path d="M44 23.4609V43.4154" stroke="#001424" stroke-width="1.5" stroke-miterlimit="10"/>
<path d="M4 43.4154V17.4746C4 16.3771 4.9 15.4791 6 15.4791H10" stroke="#001424" stroke-width="1.5" stroke-miterlimit="10" stroke-linecap="round"/>
<path d="M18 27.4518C20.2 27.4518 22 25.6559 22 23.4609V21.4654C22 19.2704 20.2 17.4745 18 17.4745C15.8 17.4745 14 19.2704 14 21.4654V23.4609C14 25.6559 15.8 27.4518 18 27.4518Z" stroke="#001424" stroke-width="1.5" stroke-miterlimit="10" stroke-linecap="round"/>
<path d="M20 27.4518V29.4472L25.6 31.4427C27.1 32.0413 28 33.5379 28 35.1343V43.5151" stroke="#001424" stroke-width="1.5" stroke-miterlimit="10" stroke-linecap="round"/>
<path d="M16 27.4518V29.4472L10.4 31.4427C8.89999 32.0413 8 33.5379 8 35.1343V43.5151" stroke="#001424" stroke-width="1.5" stroke-miterlimit="10" stroke-linecap="round"/>
<path d="M24 37.4291V43.4154" stroke="#001424" stroke-width="1.5" stroke-miterlimit="10" stroke-linecap="round"/>
<path d="M12 37.4291V43.4154" stroke="#001424" stroke-width="1.5" stroke-miterlimit="10" stroke-linecap="round"/>
<path d="M25 20.4677H29V24.4586L33 20.4677H46C46.6 20.4677 47 20.0686 47 19.47V2.50871C47 1.91008 46.6 1.51099 46 1.51099H14C13.4 1.51099 13 1.91008 13 2.50871V15.4791" stroke="#001424" stroke-width="1.5" stroke-miterlimit="10" stroke-linecap="round" stroke-linejoin="round"/>
<path d="M21.9295 9.13039L22.1005 9.4716L22.477 9.53421L23.2147 9.6569L22.6919 10.1384L22.3934 10.4134L22.4602 10.8137L22.6086 11.7021L21.8348 11.316L21.5 11.149L21.1652 11.316L20.3914 11.7021L20.5398 10.8137L20.6066 10.4134L20.3081 10.1384L19.7853 9.6569L20.523 9.53421L20.8995 9.4716L21.0705 9.13039L21.5 8.27336L21.9295 9.13039ZM21.1295 7.53402L21.1295 7.53402L21.1295 7.53402Z" fill="#0781BA" stroke="#0781BA" stroke-width="1.5"/>
<path d="M30.4295 9.13039L30.6005 9.4716L30.977 9.53421L31.7147 9.6569L31.1919 10.1384L30.8934 10.4134L30.9602 10.8137L31.1086 11.7021L30.3348 11.316L30 11.149L29.6652 11.316L28.8914 11.7021L29.0398 10.8137L29.1066 10.4134L28.8081 10.1384L28.2853 9.6569L29.023 9.53421L29.3995 9.4716L29.5705 9.13039L30 8.27336L30.4295 9.13039ZM29.6295 7.53402L29.6295 7.53402L29.6295 7.53402Z" fill="#0781BA" stroke="#0781BA" stroke-width="1.5"/>
<path d="M39.4833 9.53513L40.3576 9.67286L39.7703 10.2588L39.4966 10.5319L39.5603 10.9133L39.7042 11.7749L38.8503 11.3238L38.5 11.1388L38.1497 11.3238L37.2959 11.7749L37.4398 10.9133L37.5035 10.5319L37.2298 10.2588L36.6425 9.67286L37.5167 9.53513L37.909 9.47333L38.0784 9.11421L38.5 8.22021L38.9217 9.11421L39.0911 9.47333L39.4833 9.53513Z" fill="#0781BA" stroke="#0781BA" stroke-width="1.5"/>
</svg>
