<svg width="42" height="48" viewBox="0 0 42 48" fill="none" xmlns="http://www.w3.org/2000/svg">
<path d="M10.1001 40.5625C10.5001 41.1611 11.0001 41.7598 11.4001 42.2586C12.8001 43.7552 14.5001 45.0523 16.3001 45.9502C17.7001 46.6486 19.3001 46.9479 20.9001 46.9479C22.5001 46.9479 24.1001 46.6486 25.5001 45.9502C27.4001 45.0523 29.0001 43.7552 30.4001 42.2586C32.5001 39.9639 33.9001 37.0705 34.4001 34.0773L34.5001 33.2791C34.7001 32.2814 34.8001 31.2836 34.8001 30.2859V19.0116C34.8001 11.3291 28.5001 5.04346 20.8001 5.04346" stroke="#001424" stroke-width="1.5" stroke-miterlimit="10" stroke-linecap="round"/>
<path d="M21 5.04346C13.3 5.04346 7 11.3291 7 19.0116V30.2859C7 31.2836 7.1 32.2813 7.3 33.2791L7.4 34.0772C7.5 34.4763 7.6 34.8754 7.7 35.2745L8.3 36.9706" stroke="#001424" stroke-width="1.5" stroke-miterlimit="10" stroke-linecap="round"/>
<path d="M6 31.982H3C1.9 31.982 1 31.084 1 29.9865V24.0002C1 22.9027 1.9 22.0048 3 22.0048H6" stroke="#001424" stroke-width="1.5" stroke-miterlimit="10" stroke-linecap="round"/>
<path d="M36 31.982H39C40.1 31.982 41 31.084 41 29.9865V24.0002C41 22.9027 40.1 22.0048 39 22.0048H36" stroke="#001424" stroke-width="1.5" stroke-miterlimit="10" stroke-linecap="round"/>
<path d="M1 29.9866V34.9751C1 36.0726 1.9 36.9706 3 36.9706H14" stroke="#0781BA" stroke-width="1.5" stroke-miterlimit="10" stroke-linecap="round"/>
<path d="M18 38.9661H16C14.9 38.9661 14 38.0681 14 36.9706C14 35.8732 14.9 34.9752 16 34.9752H18C19.1 34.9752 20 35.8732 20 36.9706C20 38.0681 19.1 38.9661 18 38.9661Z" stroke="#0781BA" stroke-width="1.5" stroke-miterlimit="10" stroke-linecap="round"/>
<path d="M3 22.0048V19.0116C3 9.13408 11.1 1.05249 21 1.05249C30.9 1.05249 39 9.13408 39 19.0116V22.0048" stroke="#001424" stroke-width="1.5" stroke-miterlimit="10" stroke-linecap="round"/>
</svg>
