<svg width="12" height="9" viewBox="0 0 12 9" fill="none" xmlns="http://www.w3.org/2000/svg">
<path d="M10.9224 3.05336L9.46038 4.05311C8.60617 4.64313 7.42341 4.31534 6.9963 3.38115L5.87925 1.00468C5.78068 0.80801 5.50142 0.80801 5.41929 1.00468L4.33509 3.36476C3.89155 4.33173 2.67594 4.64313 1.82172 4.02033L0.408984 2.9878C0.211857 2.8403 -0.0674053 3.03697 0.0147308 3.28281L1.49318 7.29821C1.50961 7.34738 1.55889 7.36377 1.59174 7.36377L9.75607 7.36377C9.80535 7.36377 9.83821 7.33099 9.85463 7.29821L11.3002 3.36476C11.3988 3.11891 11.1195 2.92224 10.9224 3.05336Z" fill="#F2C94C"/>
<path d="M9.70667 8.00293H1.60815C1.54245 8.00293 1.49316 8.0521 1.49316 8.11767V8.72413C1.49316 8.78969 1.54245 8.83887 1.60815 8.83887H9.70667C9.77238 8.83887 9.82166 8.78969 9.82166 8.72413V8.11767C9.80523 8.0521 9.75595 8.00293 9.70667 8.00293Z" fill="#F2C94C"/>
</svg>
