<svg width="14" height="13" viewBox="0 0 14 13" fill="none" xmlns="http://www.w3.org/2000/svg">
<path d="M0 12.0749C0 12.3923 0.252 12.6499 0.5625 12.6499H6.1875V8.32104H0V12.0749Z" fill="#0781BA"/>
<path d="M12.9375 3.1464H11.0436C12.0125 2.39459 12.6669 1.44411 12.2543 0.646875C12.1289 0.405375 11.7917 0 10.9389 0C10.2423 0 9.34706 0.268525 8.48194 0.736575C7.67053 1.17559 7.10775 1.86818 6.75028 2.43858C6.39281 1.86789 5.83003 1.1753 5.01862 0.736575C4.1535 0.268525 3.25772 0 2.56134 0C1.70831 0 1.37109 0.405375 1.24594 0.646875C1.098 0.93265 0.95625 1.54043 1.66978 2.40062C1.88128 2.65564 2.14847 2.90806 2.45503 3.1464H0.5625C0.252 3.1464 0 3.404 0 3.7214V7.1714H6.1875V4.2964C6.1875 4.28662 6.18975 4.27771 6.19031 4.26823C6.44259 4.24379 6.64031 4.20929 6.75 4.18657C6.85997 4.20929 7.05769 4.24379 7.30969 4.26823C7.31025 4.27771 7.3125 4.28662 7.3125 4.2964V7.1714H13.5V3.7214C13.5 3.40371 13.248 3.1464 12.9375 3.1464ZM9.00788 1.75289C9.70594 1.3754 10.4276 1.15 10.9389 1.15C11.1102 1.15 11.2036 1.17616 11.2472 1.19399C11.2022 1.43204 10.6976 2.13986 9.53466 2.7692C9.07228 3.01933 8.51344 3.1464 7.87331 3.1464C7.79456 3.1464 7.71863 3.14439 7.64663 3.14094C7.92084 2.68324 8.36916 2.09875 9.00788 1.75289ZM3.96563 2.7692C2.80266 2.13986 2.29809 1.43204 2.25337 1.19399C2.29669 1.17645 2.39006 1.15 2.56134 1.15C3.07266 1.15 3.79434 1.3754 4.49213 1.75289C5.13112 2.09875 5.57944 2.68352 5.85366 3.14094C5.78166 3.14439 5.706 3.1464 5.62697 3.1464C4.98684 3.1464 4.428 3.01933 3.96563 2.7692Z" fill="#0781BA"/>
<path d="M7.3125 12.6499H12.9375C13.248 12.6499 13.5 12.3923 13.5 12.0749V8.32104H7.3125V12.6499Z" fill="#0781BA"/>
</svg>
