<svg width="24" height="24" viewBox="0 0 24 24" fill="none" xmlns="http://www.w3.org/2000/svg">
<path d="M23 9.97711H21.2C19.8 6.78444 16.7 4.38993 13 4.09062V1.99542H16C16.6 1.99542 17 1.59634 17 0.997711C17 0.399084 16.6 0 16 0H8C7.4 0 7 0.399084 7 0.997711C7 1.59634 7.4 1.99542 8 1.99542H11V4.09062C7.3 4.38993 4.3 6.78444 2.8 9.97711H1C0.4 9.97711 0 10.3762 0 10.9748C0 11.5735 0.4 11.9725 1 11.9725H2.2C2.1 12.5712 2 13.2696 2 13.968V15.9634C2 18.1583 3.8 19.9542 6 19.9542H7V22.9474C7 23.546 7.4 23.9451 8 23.9451C8.6 23.9451 9 23.546 9 22.9474V19.9542H15V22.9474C15 23.546 15.4 23.9451 16 23.9451C16.6 23.9451 17 23.546 17 22.9474V19.9542H18C20.2 19.9542 22 18.1583 22 15.9634V13.968C22 13.2696 21.9 12.5712 21.8 11.9725H23C23.6 11.9725 24 11.5735 24 10.9748C24 10.3762 23.6 9.97711 23 9.97711ZM15 9.97711C15.6 9.97711 16 10.3762 16 10.9748C16 11.5735 15.6 11.9725 15 11.9725C14.4 11.9725 14 11.5735 14 10.9748C14 10.3762 14.4 9.97711 15 9.97711ZM9 9.97711C9.6 9.97711 10 10.3762 10 10.9748C10 11.5735 9.6 11.9725 9 11.9725C8.4 11.9725 8 11.5735 8 10.9748C8 10.3762 8.4 9.97711 9 9.97711ZM14 15.9634H10C9.4 15.9634 9 15.5643 9 14.9657C9 14.367 9.4 13.968 10 13.968H14C14.6 13.968 15 14.367 15 14.9657C15 15.5643 14.6 15.9634 14 15.9634Z" fill="#0781BA"/>
</svg>
