<svg width="39" height="39" viewBox="0 0 39 39" fill="none" xmlns="http://www.w3.org/2000/svg">
<path d="M37.375 16.25H34.45C32.175 11.05 27.1375 7.15 21.125 6.6625V3.25H26C26.975 3.25 27.625 2.6 27.625 1.625C27.625 0.65 26.975 0 26 0H13C12.025 0 11.375 0.65 11.375 1.625C11.375 2.6 12.025 3.25 13 3.25H17.875V6.6625C11.8625 7.15 6.9875 11.05 4.55 16.25H1.625C0.65 16.25 0 16.9 0 17.875C0 18.85 0.65 19.5 1.625 19.5H3.575C3.4125 20.475 3.25 21.6125 3.25 22.75V26C3.25 29.575 6.175 32.5 9.75 32.5H11.375V37.375C11.375 38.35 12.025 39 13 39C13.975 39 14.625 38.35 14.625 37.375V32.5H24.375V37.375C24.375 38.35 25.025 39 26 39C26.975 39 27.625 38.35 27.625 37.375V32.5H29.25C32.825 32.5 35.75 29.575 35.75 26V22.75C35.75 21.6125 35.5875 20.475 35.425 19.5H37.375C38.35 19.5 39 18.85 39 17.875C39 16.9 38.35 16.25 37.375 16.25ZM24.375 16.25C25.35 16.25 26 16.9 26 17.875C26 18.85 25.35 19.5 24.375 19.5C23.4 19.5 22.75 18.85 22.75 17.875C22.75 16.9 23.4 16.25 24.375 16.25ZM14.625 16.25C15.6 16.25 16.25 16.9 16.25 17.875C16.25 18.85 15.6 19.5 14.625 19.5C13.65 19.5 13 18.85 13 17.875C13 16.9 13.65 16.25 14.625 16.25ZM22.75 26H16.25C15.275 26 14.625 25.35 14.625 24.375C14.625 23.4 15.275 22.75 16.25 22.75H22.75C23.725 22.75 24.375 23.4 24.375 24.375C24.375 25.35 23.725 26 22.75 26Z" fill="#0781BA"/>
</svg>
