<svg width="48" height="49" viewBox="0 0 48 49" fill="none" xmlns="http://www.w3.org/2000/svg">
<path d="M1 5.50183V43.4154C1 45.6103 2.8 47.4062 5 47.4062H35V38.4267" stroke="#001424" stroke-width="1.5" stroke-miterlimit="10" stroke-linecap="round"/>
<path d="M23 9.4928C23 11.4882 23 18.4723 23 18.4723L26 16.4768L29 18.4723V9.4928" stroke="#0781BA" stroke-width="1.5" stroke-miterlimit="10" stroke-linecap="round"/>
<path d="M6 5.50183H33" stroke="#001424" stroke-width="1.5" stroke-miterlimit="10" stroke-linecap="round"/>
<path d="M37.8 37.7284C41.6 36.5311 44.8 33.9371 46.8 30.445C44.3 26.2546 40 23.2614 35 22.563V18.4723V9.49279H5C2.8 9.49279 1 7.69688 1 5.50189C1 3.30689 2.8 1.51099 5 1.51099H33V9.49279" stroke="#001424" stroke-width="1.5" stroke-miterlimit="10" stroke-linecap="round" stroke-linejoin="round"/>
<path d="M31.4999 22.563C26.1999 23.0618 21.6999 26.1548 19.2 30.445C21.9999 35.234 27.0999 38.4268 32.9999 38.4268C33.6999 38.4268 34.2999 38.4268 34.9999 38.327" stroke="#001424" stroke-width="1.5" stroke-miterlimit="10" stroke-linecap="round" stroke-linejoin="round"/>
<path d="M33 35.4336C35.7614 35.4336 38 33.2001 38 30.445C38 27.6899 35.7614 25.4564 33 25.4564C30.2386 25.4564 28 27.6899 28 30.445C28 33.2001 30.2386 35.4336 33 35.4336Z" stroke="#001424" stroke-width="1.5" stroke-miterlimit="10"/>
<path d="M6.25 42.4177C6.25 42.5529 6.13967 42.6654 6 42.6654C5.86033 42.6654 5.75 42.5529 5.75 42.4177C5.75 42.2824 5.86033 42.1699 6 42.1699C6.13967 42.1699 6.25 42.2824 6.25 42.4177Z" fill="#0781BA" stroke="#0781BA" stroke-width="1.5"/>
<path d="M6.25 38.4268C6.25 38.562 6.13967 38.6746 6 38.6746C5.86033 38.6746 5.75 38.562 5.75 38.4268C5.75 38.2916 5.86033 38.1791 6 38.1791C6.13967 38.1791 6.25 38.2916 6.25 38.4268Z" fill="#0781BA" stroke="#0781BA" stroke-width="1.5"/>
<path d="M6.25 34.4359C6.25 34.5711 6.13967 34.6836 6 34.6836C5.86033 34.6836 5.75 34.5711 5.75 34.4359C5.75 34.3006 5.86033 34.1881 6 34.1881C6.13967 34.1881 6.25 34.3006 6.25 34.4359Z" fill="#0781BA" stroke="#0781BA" stroke-width="1.5"/>
<path d="M6.25 30.4449C6.25 30.5801 6.13971 30.6926 6 30.6926C5.86029 30.6926 5.75 30.5801 5.75 30.4449C5.75 30.3098 5.86029 30.1973 6 30.1973C6.13971 30.1973 6.25 30.3098 6.25 30.4449Z" fill="#0781BA" stroke="#0781BA" stroke-width="1.5"/>
<path d="M6.25 26.4541C6.25 26.5893 6.13971 26.7018 6 26.7018C5.86029 26.7018 5.75 26.5893 5.75 26.4541C5.75 26.319 5.86029 26.2064 6 26.2064C6.13971 26.2064 6.25 26.319 6.25 26.4541Z" fill="#0781BA" stroke="#0781BA" stroke-width="1.5"/>
<path d="M6.25 22.4632C6.25 22.5984 6.13967 22.7109 6 22.7109C5.86033 22.7109 5.75 22.5984 5.75 22.4632C5.75 22.328 5.86033 22.2155 6 22.2155C6.13967 22.2155 6.25 22.328 6.25 22.4632Z" fill="#0781BA" stroke="#0781BA" stroke-width="1.5"/>
<path d="M6.25 18.4722C6.25 18.6075 6.13967 18.72 6 18.72C5.86033 18.72 5.75 18.6075 5.75 18.4722C5.75 18.337 5.86033 18.2245 6 18.2245C6.13967 18.2245 6.25 18.337 6.25 18.4722Z" fill="#0781BA" stroke="#0781BA" stroke-width="1.5"/>
<path d="M6.25 14.4814C6.25 14.6166 6.13967 14.7291 6 14.7291C5.86033 14.7291 5.75 14.6166 5.75 14.4814C5.75 14.3462 5.86033 14.2336 6 14.2336C6.13967 14.2336 6.25 14.3462 6.25 14.4814Z" fill="#0781BA" stroke="#0781BA" stroke-width="1.5"/>
</svg>
