<svg width="48" height="49" viewBox="0 0 48 49" fill="none" xmlns="http://www.w3.org/2000/svg">
<path d="M47 4.50416C47 2.80803 45.7 1.51099 44 1.51099H4C2.3 1.51099 1 2.80803 1 4.50416V38.4267C1 40.1229 2.3 41.4199 4 41.4199H24L31 47.4062V41.4199H44C45.7 41.4199 47 40.1229 47 38.4267V4.50416Z" stroke="#001424" stroke-width="1.5" stroke-miterlimit="10" stroke-linecap="round" stroke-linejoin="round"/>
<path d="M32.8501 17.0754C32.8501 18.2018 32.1443 18.8197 31.6001 18.8197C31.0559 18.8197 30.3501 18.2018 30.3501 17.0754C30.3501 15.9489 31.0559 15.3311 31.6001 15.3311C32.1443 15.3311 32.8501 15.9489 32.8501 17.0754Z" fill="#0781BA" stroke="#0781BA" stroke-width="1.5"/>
<path d="M17.6499 17.0754C17.6499 18.2018 16.9441 18.8197 16.3999 18.8197C15.8557 18.8197 15.1499 18.2018 15.1499 17.0754C15.1499 15.9489 15.8557 15.3311 16.3999 15.3311C16.9441 15.3311 17.6499 15.9489 17.6499 17.0754Z" fill="#0781BA" stroke="#0781BA" stroke-width="1.5"/>
<path d="M14.5 24.8578C16.7 27.6514 20.1 29.4473 24 29.4473C27.9 29.4473 31.3 27.6514 33.5 24.8578" stroke="#0781BA" stroke-width="1.5" stroke-miterlimit="10" stroke-linecap="round" stroke-linejoin="round"/>
</svg>
