<svg width="48" height="49" viewBox="0 0 48 49" fill="none" xmlns="http://www.w3.org/2000/svg">
<path d="M39 11.0297V3.04794C39 1.95044 38.1 1.05249 37 1.05249H3C1.9 1.05249 1 1.95044 1 3.04794V30.9843C1 32.0818 1.9 32.9797 3 32.9797H17L23 38.9661V32.9797H38C38.6 32.9797 39 32.5806 39 31.982V19.0116" stroke="#001424" stroke-width="1.5" stroke-miterlimit="10" stroke-linecap="round" stroke-linejoin="round"/>
<path d="M21.25 24.0002C21.25 24.1354 21.1397 24.2479 21 24.2479C20.8603 24.2479 20.75 24.1354 20.75 24.0002C20.75 23.865 20.8603 23.7524 21 23.7524C21.1397 23.7524 21.25 23.865 21.25 24.0002Z" fill="#0781BA" stroke="#0781BA" stroke-width="1.5"/>
<path d="M25.25 24.0002C25.25 24.1354 25.1397 24.2479 25 24.2479C24.8603 24.2479 24.75 24.1354 24.75 24.0002C24.75 23.865 24.8603 23.7524 25 23.7524C25.1397 23.7524 25.25 23.865 25.25 24.0002Z" fill="#0781BA" stroke="#0781BA" stroke-width="1.5"/>
<path d="M29.25 24.0002C29.25 24.1354 29.1397 24.2479 29 24.2479C28.8603 24.2479 28.75 24.1354 28.75 24.0002C28.75 23.865 28.8603 23.7524 29 23.7524C29.1397 23.7524 29.25 23.865 29.25 24.0002Z" fill="#0781BA" stroke="#0781BA" stroke-width="1.5"/>
<path d="M9 36.9707V44.9525C9 46.05 9.9 46.9479 11 46.9479H45C46.1 46.9479 47 46.05 47 44.9525V17.0162C47 15.9187 46.1 15.0208 45 15.0208H33L27 9.03442V15.0208H11C9.9 15.0208 9 15.9187 9 17.0162V28.9889" stroke="#001424" stroke-width="1.5" stroke-miterlimit="10" stroke-linecap="round" stroke-linejoin="round"/>
</svg>
