<svg width="48" height="49" viewBox="0 0 48 49" fill="none" xmlns="http://www.w3.org/2000/svg">
<path d="M22.6 16.8167L28.3 22.5037L26.9 23.9005H24V26.6941L16.9 33.778C15.3 35.3744 12.8 35.3744 11.2 33.778C9.6 32.1816 9.6 29.6873 11.2 28.091L18.3 21.0071H21.1V18.2135L22.6 16.8167Z" stroke="#0781BA" stroke-width="1.5" stroke-miterlimit="10"/>
<path d="M25.3999 19.6103L38.0999 6.93921" stroke="#0781BA" stroke-width="1.5" stroke-miterlimit="10"/>
<path d="M22.6 16.8165L18.8 13.0252C19.4 11.5286 19.2 9.73271 18.3 8.3359C17.1 6.63978 15.2 5.94137 13.4 6.24069L12.7 6.93909L14.8 9.0343C14.8 9.63293 14.8 9.93224 14.8 10.4311L13.4 11.8279C12.8 11.8279 12.5 11.8279 12 11.8279L9.89998 9.7327L9.19999 10.4311C8.99999 11.9277 9.4 13.524 10.6 14.7213C12 16.1181 14.2 16.5172 16 15.8188L18.4 18.2133" stroke="#001424" stroke-width="1.5" stroke-miterlimit="10"/>
<path d="M28.2001 22.4038L32.0001 26.1951C33.5001 25.5965 35.3001 25.7961 36.7001 26.694C38.4001 27.8913 39.1001 29.7869 38.8001 31.5828L38.1002 32.2812L36.0001 30.186C35.4001 30.186 35.1002 30.186 34.6002 30.186L33.2001 31.5828C33.2001 32.1815 33.2001 32.4808 33.2001 32.9796L35.3001 35.0749L34.6002 35.7733C33.1002 35.9728 31.5001 35.5737 30.3001 34.3765C28.9 32.9796 28.5001 30.7847 29.2001 28.9888L26.8 26.5942" stroke="#001424" stroke-width="1.5" stroke-miterlimit="10"/>
<path d="M47 4.04567C47 2.34953 45.7 1.05249 44 1.05249H4C2.3 1.05249 1 2.34953 1 4.04567V37.9683C1 39.6645 2.3 40.9615 4 40.9615H24L31 46.9479V40.9615H44C45.7 40.9615 47 39.6645 47 37.9683V4.04567Z" stroke="#001424" stroke-width="1.5" stroke-miterlimit="10" stroke-linecap="round" stroke-linejoin="round"/>
</svg>
