<svg width="48" height="49" viewBox="0 0 48 49" fill="none" xmlns="http://www.w3.org/2000/svg">
<path d="M27 43.4154H47V45.4108C46.2 46.209 45.8 46.6081 45 47.4062H3C2.2 46.6081 1.8 46.209 1 45.4108V43.4154H21" stroke="#001424" stroke-width="1.5" stroke-miterlimit="10"/>
<path d="M25 43.4154H23" stroke="#001424" stroke-width="1.5" stroke-miterlimit="10"/>
<path d="M44 23.4609V43.4154" stroke="#001424" stroke-width="1.5" stroke-miterlimit="10"/>
<path d="M4 43.4154V17.4746C4 16.3771 4.9 15.4791 6 15.4791H10" stroke="#001424" stroke-width="1.5" stroke-miterlimit="10" stroke-linecap="round"/>
<path d="M18 27.4518C20.2 27.4518 22 25.6559 22 23.4609V21.4654C22 19.2704 20.2 17.4745 18 17.4745C15.8 17.4745 14 19.2704 14 21.4654V23.4609C14 25.6559 15.8 27.4518 18 27.4518Z" stroke="#001424" stroke-width="1.5" stroke-miterlimit="10" stroke-linecap="round"/>
<path d="M20 27.4518V29.4472L25.6 31.4427C27.1 32.0413 28 33.5379 28 35.1343V43.5151" stroke="#001424" stroke-width="1.5" stroke-miterlimit="10" stroke-linecap="round"/>
<path d="M16 27.4518V29.4472L10.4 31.4427C8.89999 32.0413 8 33.5379 8 35.1343V43.5151" stroke="#001424" stroke-width="1.5" stroke-miterlimit="10" stroke-linecap="round"/>
<path d="M24 37.4291V43.4154" stroke="#001424" stroke-width="1.5" stroke-miterlimit="10" stroke-linecap="round"/>
<path d="M12 37.4291V43.4154" stroke="#001424" stroke-width="1.5" stroke-miterlimit="10" stroke-linecap="round"/>
<path d="M25 20.4677H29V24.4586L33 20.4677H46C46.6 20.4677 47 20.0686 47 19.47V2.50871C47 1.91008 46.6 1.51099 46 1.51099H14C13.4 1.51099 13 1.91008 13 2.50871V15.4791" stroke="#001424" stroke-width="1.5" stroke-miterlimit="10" stroke-linecap="round" stroke-linejoin="round"/>
<path d="M21.9296 9.13039L22.1006 9.4716L22.4771 9.53421L23.2148 9.6569L22.692 10.1384L22.3935 10.4134L22.4603 10.8137L22.6087 11.7021L21.8349 11.316L21.5001 11.149L21.1653 11.316L20.3915 11.7021L20.5399 10.8137L20.6067 10.4134L20.3082 10.1384L19.7854 9.6569L20.5231 9.53421L20.8996 9.4716L21.0706 9.13039L21.5001 8.27336L21.9296 9.13039Z" fill="#0781BA" stroke="#0781BA" stroke-width="1.5"/>
<path d="M30.4296 9.13039L30.6006 9.4716L30.9771 9.53421L31.7148 9.6569L31.192 10.1384L30.8935 10.4134L30.9603 10.8137L31.1087 11.7021L30.3349 11.316L30.0001 11.149L29.6653 11.316L28.8915 11.7021L29.0399 10.8137L29.1067 10.4134L28.8082 10.1384L28.2854 9.6569L29.0231 9.53421L29.3996 9.4716L29.5706 9.13039L30.0001 8.27336L30.4296 9.13039Z" fill="#0781BA" stroke="#0781BA" stroke-width="1.5"/>
<path d="M39.4834 9.53513L40.3577 9.67286L39.7704 10.2588L39.4967 10.5319L39.5604 10.9133L39.7043 11.7749L38.8504 11.3238L38.5001 11.1388L38.1498 11.3238L37.296 11.7749L37.4399 10.9133L37.5036 10.5319L37.2299 10.2588L36.6426 9.67286L37.5168 9.53513L37.9091 9.47333L38.0785 9.11421L38.5001 8.22021L38.9218 9.11421L39.0912 9.47333L39.4834 9.53513Z" fill="#0781BA" stroke="#0781BA" stroke-width="1.5"/>
</svg>
